<svg version="1.1" id="Layer_1" xmlns="http://www.w3.org/2000/svg" xmlns:xlink="http://www.w3.org/1999/xlink" x="0px" y="0px"
	 width="100%" viewBox="0 0 1024 1024" enable-background="new 0 0 1024 1024" xml:space="preserve">
<path fill="#FFFFFF" opacity="1.000000" stroke="none" 
	d="
M683.000000,1025.000000 
	C455.333344,1025.000000 228.166672,1025.000000 1.000000,1025.000000 
	C1.000000,683.666687 1.000000,342.333344 1.000000,1.000000 
	C342.333344,1.000000 683.666687,1.000000 1025.000000,1.000000 
	C1025.000000,342.333344 1025.000000,683.666687 1025.000000,1025.000000 
	C911.166687,1025.000000 797.333313,1025.000000 683.000000,1025.000000 
M551.972717,638.972351 
	C551.972717,638.972351 551.962219,639.011108 551.030273,639.027832 
	C549.226379,639.041321 547.419006,638.987793 545.619263,639.081299 
	C540.664795,639.338501 535.713623,639.657166 529.953247,639.974731 
	C524.971802,641.647522 519.615417,642.638306 515.083862,645.129517 
	C504.339172,651.036194 502.321350,669.726135 511.511566,676.922546 
	C522.583191,685.592285 538.381653,686.883057 550.421997,678.192322 
	C551.222290,677.614563 552.330811,677.463867 553.551514,677.022095 
	C553.893555,679.192810 554.145691,680.792969 554.557129,683.404236 
	C560.147034,682.896912 565.623718,682.399841 571.847961,681.493652 
	C571.900818,666.686707 571.965759,651.879761 571.967224,637.072815 
	C571.967285,636.402649 571.393066,635.732483 571.034119,634.255920 
	C570.074280,627.593323 567.607910,621.464294 561.717712,617.970093 
	C547.654358,609.627686 533.055298,609.331726 518.724670,617.258972 
	C513.861023,619.949402 511.002075,624.691345 510.452698,630.363037 
	C515.068420,632.023254 519.349854,633.563171 523.638123,635.105591 
	C530.139404,622.819153 544.764160,621.931274 552.105713,634.197144 
	C552.074219,635.785095 552.042725,637.373108 551.972717,638.972351 
M363.946472,614.062988 
	C369.540924,614.062988 375.135376,614.062988 381.155762,614.062988 
	C381.155762,637.211060 381.155762,659.668945 381.155762,682.126831 
	C381.341553,682.124023 381.527344,682.121155 381.713135,682.118286 
	C381.713135,659.216248 381.713135,636.314148 381.713135,612.525757 
	C374.938934,613.046692 368.492218,613.542358 362.001556,614.965454 
	C362.001556,628.615784 362.001556,642.266052 362.001556,655.916382 
	C362.346497,655.915283 362.691437,655.914185 363.036377,655.913086 
	C363.036377,642.033020 363.036377,628.152893 363.946472,614.062988 
M586.247437,682.684509 
	C600.746155,682.796814 615.244812,682.919556 629.743774,682.976624 
	C630.236206,682.978577 630.731262,682.319824 632.045898,681.998596 
	C646.701660,680.762146 658.979065,674.355469 666.753967,662.137451 
	C677.575378,645.131714 677.436768,626.783630 668.796814,608.727722 
	C667.169189,605.326294 663.678772,602.816345 660.777283,599.280823 
	C652.725830,590.734802 642.352600,587.355957 630.677917,585.166260 
	C616.535706,585.133423 602.393555,585.088989 588.251404,585.102234 
	C587.558167,585.102905 586.865479,585.607300 586.052795,586.459106 
	C586.090210,586.653687 586.127563,586.848206 586.029358,587.965149 
	C586.071472,619.235596 586.113586,650.505981 586.247437,682.684509 
M581.728027,493.200226 
	C572.299561,493.198730 562.871033,493.197205 553.064575,492.481445 
	C551.103516,487.318695 549.142456,482.155945 547.029602,476.211487 
	C544.679138,469.287811 542.328613,462.364105 540.840576,455.029968 
	C574.780396,455.010315 608.720154,455.002747 642.659912,454.930817 
	C644.154846,454.927643 645.648499,454.336060 647.940735,454.006592 
	C662.268677,451.934021 674.537354,439.176483 675.977356,424.063171 
	C675.986328,398.461884 676.019531,372.860535 675.997498,347.259277 
	C675.974487,320.498199 675.898376,293.737152 675.726379,266.260529 
	C671.330750,252.580719 662.482788,243.759903 647.683960,240.189178 
	C647.190735,240.125092 646.697510,240.004852 646.204285,240.004868 
	C556.450134,240.007278 466.695953,240.016190 376.941833,240.068924 
	C376.281372,240.069321 375.621277,240.674393 374.207916,241.045334 
	C372.349762,241.675293 370.493164,242.309784 368.633240,242.934464 
	C359.244324,246.087860 350.378815,257.517914 349.236115,267.327271 
	C349.176971,267.820984 349.066406,268.314697 349.066071,268.808441 
	C349.029968,320.911591 348.998657,373.014740 349.012238,425.117889 
	C349.012390,425.796783 349.589569,426.475555 349.960480,427.953461 
	C350.392151,429.848145 350.558807,431.853760 351.298035,433.619690 
	C356.491638,446.026245 366.230896,452.562958 380.069061,454.972168 
	C413.362579,454.998474 446.656097,455.024750 479.648438,455.759155 
	C475.378265,468.175446 471.108063,480.591766 466.007782,493.007904 
	C464.341827,493.063843 462.675873,493.119751 460.334015,493.039612 
	C459.543213,493.328308 458.752411,493.616974 457.101318,494.016907 
	C455.080170,494.067566 453.058990,494.118225 450.171661,494.033142 
	C448.193024,494.014038 446.205414,494.109406 444.237305,493.955444 
	C436.835480,493.376434 432.764648,497.395294 433.308472,505.662048 
	C435.346649,510.434113 439.181213,512.486145 445.062103,512.930176 
	C455.543396,512.959717 466.024750,513.025818 476.505981,513.012024 
	C510.609528,512.967224 544.713074,512.893250 579.624023,512.965881 
	C582.066162,512.165894 584.623901,511.609619 586.926880,510.516418 
	C592.097046,508.062073 593.058228,504.464142 590.771851,499.288116 
	C589.038574,495.364166 585.230103,495.400482 581.728027,493.200226 
M403.041656,665.724487 
	C404.219391,670.559326 405.423492,675.322144 409.955383,678.389771 
	C418.104797,683.906067 426.939819,685.124390 436.301392,682.641479 
	C437.644714,682.285156 439.738708,680.537598 439.632294,679.658081 
	C439.136536,675.562012 437.989563,671.544739 437.039917,667.341492 
	C434.847626,667.541138 432.418945,667.764709 429.989807,667.982910 
	C425.307892,668.403381 422.243683,666.734070 421.756348,660.765503 
	C421.755096,649.944824 421.753815,639.124084 422.702118,628.123596 
	C427.812683,628.061890 432.923279,628.000244 438.893921,627.957214 
	C439.394684,623.111206 439.895416,618.265259 440.442047,612.975281 
	C433.595825,612.975281 427.822723,612.975281 422.017151,612.042847 
	C422.011017,609.217041 422.004639,606.391296 421.998840,603.565491 
	C421.977142,593.016418 422.949554,594.011597 412.286163,594.000000 
	C403.001251,593.989868 403.001282,594.000427 403.001251,603.132507 
	C403.001221,613.106750 403.000732,613.102844 393.224091,614.288330 
	C392.946136,614.322083 392.704315,614.653748 392.304230,614.951904 
	C392.220551,615.476318 392.054626,616.115173 392.025299,616.760132 
	C391.537415,627.484741 391.541168,627.484924 402.189819,629.117004 
	C402.129395,639.722717 402.036194,650.328430 402.049530,660.934021 
	C402.051208,662.276245 402.611481,663.617737 403.041656,665.724487 
M459.079041,629.062927 
	C459.112274,636.471497 459.074310,643.881287 459.207977,651.288025 
	C459.277496,655.140076 459.650024,658.986633 459.953033,663.702698 
	C458.264984,680.290649 481.442474,688.747925 497.194336,680.734253 
	C496.938629,676.151794 496.671753,671.368835 496.394653,666.402466 
	C482.576630,669.682251 482.168060,669.558228 478.877411,660.810242 
	C478.909119,649.921387 478.940857,639.032471 479.908966,628.061218 
	C484.399780,628.042725 488.901184,628.188110 493.374542,627.899414 
	C494.610931,627.819519 496.589996,626.641785 496.826630,625.637573 
	C499.045441,616.220276 497.220703,614.000061 487.742401,614.000000 
	C486.744385,614.000000 485.726410,613.871216 484.751740,614.022034 
	C480.199951,614.726318 478.899109,612.939453 478.873932,608.305054 
	C478.781097,591.198730 482.164459,594.388428 464.038055,593.955872 
	C461.070068,593.885132 459.787170,594.792847 459.953888,597.914917 
	C460.157593,601.729675 459.869019,605.569641 460.038177,609.387878 
	C460.192749,612.875549 458.655640,614.506714 455.303955,613.957581 
	C449.717682,613.042419 448.671539,615.706421 448.906677,620.645447 
	C449.299469,628.896790 448.305206,627.935242 456.075836,628.007446 
	C457.072205,628.016724 458.067810,628.104675 459.079041,629.062927 
M754.982056,651.988708 
	C754.986938,648.817261 755.379456,645.589111 754.924866,642.484924 
	C753.499390,632.751221 750.278809,624.091736 741.675720,617.924927 
	C736.876282,614.484680 731.816772,613.471130 726.303711,612.559937 
	C716.371826,610.918213 706.942078,611.980835 698.368164,617.191833 
	C685.455811,625.039673 679.867310,643.110901 684.399536,658.979248 
	C692.356140,686.836975 730.956604,690.339294 747.990295,674.501526 
	C750.575623,672.097717 753.686035,669.793640 752.843323,665.478943 
	C748.023376,663.644409 743.349976,661.865723 738.681946,660.089050 
	C729.180847,672.453552 705.856262,671.386902 703.871765,654.063660 
	C719.334656,654.056946 734.797791,654.085571 750.260071,653.988464 
	C751.790466,653.978882 753.316040,653.200439 754.982056,651.988708 
M294.479797,676.969482 
	C292.339783,674.291321 290.199768,671.613220 288.116364,669.005981 
	C299.652283,653.693909 302.798340,644.417297 300.882385,625.891174 
	C299.473328,612.266296 292.567780,601.168274 281.658905,592.876343 
	C270.853119,584.662781 258.342438,582.708679 245.008072,582.856934 
	C230.370956,583.019714 218.295090,588.913025 208.766769,599.023254 
	C194.379822,614.288635 191.904282,636.799316 200.268646,655.267639 
	C209.034637,674.622681 225.661728,682.617493 246.070618,683.994629 
	C253.551697,684.499451 260.694336,683.190002 267.692017,680.425293 
	C269.129700,679.857300 271.779663,680.642090 273.076996,681.740723 
	C277.883881,685.811462 282.305115,690.334351 287.008453,694.533630 
	C287.844208,695.279907 289.773651,695.973206 290.450470,695.535339 
	C294.821625,692.707520 298.985291,689.558899 304.377106,685.681152 
	C300.716034,682.483948 297.849213,679.980347 294.479797,676.969482 
M796.059265,651.483459 
	C795.244568,653.247009 794.429871,655.010498 793.419250,657.198059 
	C792.494019,655.625732 791.594055,654.447693 791.053711,653.122986 
	C786.332520,641.546570 781.751709,629.912048 776.916199,618.384094 
	C776.204773,616.687988 774.466125,614.327393 773.047974,614.214172 
	C767.155273,613.743713 761.203247,614.016418 754.442749,614.016418 
	C764.638245,637.517578 774.510620,660.273865 784.367615,682.994629 
	C789.961304,682.994629 795.131836,683.181458 800.271301,682.864868 
	C801.576294,682.784485 803.400818,681.369629 803.941345,680.116882 
	C811.547852,662.489136 819.000488,644.794617 826.422791,627.087952 
	C828.152222,622.962036 829.629028,618.730164 831.427307,614.008301 
	C824.834045,614.008301 819.014526,613.888733 813.208313,614.114136 
	C812.110291,614.156799 810.502441,615.342529 810.082397,616.384827 
	C805.463867,627.844055 801.034058,639.379333 796.059265,651.483459 
M313.011688,648.340332 
	C313.011688,650.376038 313.011688,652.411743 313.011688,654.447510 
	C313.249756,654.442871 313.487823,654.438293 313.725891,654.433716 
	C313.725891,641.166992 313.725891,627.900330 313.725891,614.633606 
	C313.488525,614.632935 313.251190,614.632202 313.013824,614.631470 
	C313.013824,625.547180 313.013824,636.462891 313.011688,648.340332 
M332.133698,616.484985 
	C332.133698,628.884888 332.133698,641.284790 332.133698,653.684692 
	C332.776031,652.194946 332.772949,650.706360 332.776520,649.217773 
	C332.802368,638.394775 332.835907,627.571838 332.826813,616.748840 
	C332.826538,616.412598 332.389343,616.076660 332.133698,616.484985 
z"/>
<path fill="#FAF9F9" opacity="1.000000" stroke="none" 
	d="
M294.731079,677.223145 
	C297.849213,679.980347 300.716034,682.483948 304.377106,685.681152 
	C298.985291,689.558899 294.821625,692.707520 290.450470,695.535339 
	C289.773651,695.973206 287.844208,695.279907 287.008453,694.533630 
	C282.305115,690.334351 277.883881,685.811462 273.076996,681.740723 
	C271.779663,680.642090 269.129700,679.857300 267.692017,680.425293 
	C260.694336,683.190002 253.551697,684.499451 246.070618,683.994629 
	C225.661728,682.617493 209.034637,674.622681 200.268646,655.267639 
	C191.904282,636.799316 194.379822,614.288635 208.766769,599.023254 
	C218.295090,588.913025 230.370956,583.019714 245.008072,582.856934 
	C258.342438,582.708679 270.853119,584.662781 281.658905,592.876343 
	C292.567780,601.168274 299.473328,612.266296 300.882385,625.891174 
	C302.798340,644.417297 299.652283,653.693909 288.116364,669.005981 
	C290.199768,671.613220 292.339783,674.291321 294.731079,677.223145 
M249.229965,599.999695 
	C243.181259,601.455872 236.654892,601.925049 231.183136,604.573303 
	C219.733704,610.114624 213.906006,627.445557 217.594376,642.869141 
	C221.668915,659.907410 235.158356,667.005554 248.808380,666.743286 
	C264.942047,666.433228 278.373901,657.325928 281.269135,639.145325 
	C284.115692,621.270813 272.069336,599.912231 249.229965,599.999695 
z"/>
<path fill="#FAF9F9" opacity="1.000000" stroke="none" 
	d="
M552.181702,633.421265 
	C544.764160,621.931274 530.139404,622.819153 523.638123,635.105591 
	C519.349854,633.563171 515.068420,632.023254 510.452698,630.363037 
	C511.002075,624.691345 513.861023,619.949402 518.724670,617.258972 
	C533.055298,609.331726 547.654358,609.627686 561.717712,617.970093 
	C567.607910,621.464294 570.074280,627.593323 571.020508,635.124512 
	C571.038086,651.296326 571.069214,666.599487 571.100403,681.902710 
	C565.623718,682.399841 560.147034,682.896912 554.557129,683.404236 
	C554.145691,680.792969 553.893555,679.192810 553.551514,677.022095 
	C552.330811,677.463867 551.222290,677.614563 550.421997,678.192322 
	C538.381653,686.883057 522.583191,685.592285 511.511566,676.922546 
	C502.321350,669.726135 504.339172,651.036194 515.083862,645.129517 
	C519.615417,642.638306 524.971802,641.647522 530.842346,640.021484 
	C533.856567,640.010193 535.984558,640.003479 538.106201,639.883850 
	C542.726624,639.623413 547.343750,639.305542 551.962219,639.011108 
	C551.962219,639.011108 551.972717,638.972351 552.356934,638.876465 
	C552.554688,636.994141 552.368225,635.207703 552.181702,633.421265 
z"/>
<path fill="#00CBF8" opacity="1.000000" stroke="none" 
	d="
M702.943420,654.279907 
	C705.856262,671.386902 729.180847,672.453552 738.681946,660.089050 
	C743.349976,661.865723 748.023376,663.644409 752.843323,665.478943 
	C753.686035,669.793640 750.575623,672.097717 747.990295,674.501526 
	C730.956604,690.339294 692.356140,686.836975 684.399536,658.979248 
	C679.867310,643.110901 685.455811,625.039673 698.368164,617.191833 
	C706.942078,611.980835 716.371826,610.918213 726.303711,612.559937 
	C731.816772,613.471130 736.876282,614.484680 741.675720,617.924927 
	C750.278809,624.091736 753.499390,632.751221 754.924866,642.484924 
	C755.379456,645.589111 754.986938,648.817261 754.456665,652.416321 
	C738.516663,652.860840 723.101868,652.837708 707.688110,652.955017 
	C706.103210,652.967041 704.524841,653.818176 702.943420,654.279907 
M703.546143,640.531250 
	C709.305237,640.685852 715.065735,640.995972 720.823059,640.946533 
	C725.548828,640.905945 730.270813,640.437866 735.641663,639.769775 
	C735.263000,632.563843 730.575684,626.884216 724.295898,626.022339 
	C715.157227,624.768066 706.261841,629.004211 704.122559,635.665283 
	C703.681580,637.038696 703.394775,638.461548 703.546143,640.531250 
z"/>
<path fill="#00CBF8" opacity="1.000000" stroke="none" 
	d="
M661.047913,599.895020 
	C663.678772,602.816345 667.169189,605.326294 668.796814,608.727722 
	C677.436768,626.783630 677.575378,645.131714 666.753967,662.137451 
	C658.979065,674.355469 646.701660,680.762146 631.151245,681.943054 
	C615.837097,681.820312 601.417542,681.753113 587.001343,681.236938 
	C586.999878,660.530212 586.995056,640.272400 587.379517,619.966370 
	C595.774780,617.540771 595.702820,617.597046 600.714294,624.003662 
	C601.737000,625.311035 603.524780,626.019897 605.011353,627.470398 
	C605.078796,638.010681 605.039551,648.085876 605.149048,658.159363 
	C605.176819,660.711670 605.678528,663.258789 606.427612,665.885559 
	C612.557556,665.975098 618.231567,666.198730 623.884644,665.948608 
	C631.746704,665.600708 638.975830,663.346619 644.781677,657.666443 
	C655.607849,647.074585 657.283447,629.097961 649.188110,613.866516 
	C651.525757,607.564941 655.260559,602.873352 661.047913,599.895020 
z"/>
<path fill="#00CBF8" opacity="1.000000" stroke="none" 
	d="
M796.306152,651.188721 
	C801.034058,639.379333 805.463867,627.844055 810.082397,616.384827 
	C810.502441,615.342529 812.110291,614.156799 813.208313,614.114136 
	C819.014526,613.888733 824.834045,614.008301 831.427307,614.008301 
	C829.629028,618.730164 828.152222,622.962036 826.422791,627.087952 
	C819.000488,644.794617 811.547852,662.489136 803.941345,680.116882 
	C803.400818,681.369629 801.576294,682.784485 800.271301,682.864868 
	C795.131836,683.181458 789.961304,682.994629 784.367615,682.994629 
	C774.510620,660.273865 764.638245,637.517578 754.442749,614.016418 
	C761.203247,614.016418 767.155273,613.743713 773.047974,614.214172 
	C774.466125,614.327393 776.204773,616.687988 776.916199,618.384094 
	C781.751709,629.912048 786.332520,641.546570 791.053711,653.122986 
	C791.594055,654.447693 792.494019,655.625732 793.419250,657.198059 
	C794.429871,655.010498 795.244568,653.247009 796.306152,651.188721 
z"/>
<path fill="#B839F9" opacity="1.000000" stroke="none" 
	d="
M379.163879,454.867432 
	C366.230896,452.562958 356.491638,446.026245 351.298035,433.619690 
	C350.558807,431.853760 350.392151,429.848145 349.999939,427.079620 
	C350.035980,403.458313 350.032593,380.710846 350.297821,358.174622 
	C355.704803,362.254059 360.843201,366.122253 366.003479,370.459778 
	C366.071198,385.630096 366.086639,400.331360 366.191223,415.031952 
	C366.209625,417.621918 366.600769,420.209259 366.896149,423.167694 
	C369.805511,430.377350 373.782104,435.845673 382.386597,436.397339 
	C392.293549,436.776093 401.893524,436.836945 411.489899,437.055939 
	C413.217590,437.095337 415.202637,437.360046 416.600159,438.253662 
	C421.181702,441.183350 425.625183,444.347656 429.965942,447.627899 
	C432.497040,449.540649 434.730896,451.846741 436.624084,453.998932 
	C418.730560,454.048889 401.311310,454.056335 383.892395,454.135559 
	C382.315155,454.142731 380.739990,454.612488 379.163879,454.867432 
z"/>
<path fill="#FAF9F9" opacity="1.000000" stroke="none" 
	d="
M478.864655,661.697510 
	C482.168060,669.558228 482.576630,669.682251 496.394653,666.402466 
	C496.671753,671.368835 496.938629,676.151794 497.194336,680.734253 
	C481.442474,688.747925 458.264984,680.290649 459.932129,662.812744 
	C459.891418,653.526428 459.935333,645.129272 459.816528,636.734375 
	C459.776031,633.872009 459.326447,631.015442 459.063782,628.156189 
	C458.067810,628.104675 457.072205,628.016724 456.075836,628.007446 
	C448.305206,627.935242 449.299469,628.896790 448.906677,620.645447 
	C448.671539,615.706421 449.717682,613.042419 455.303955,613.957581 
	C458.655640,614.506714 460.192749,612.875549 460.038177,609.387878 
	C459.869019,605.569641 460.157593,601.729675 459.953888,597.914917 
	C459.787170,594.792847 461.070068,593.885132 464.038055,593.955872 
	C482.164459,594.388428 478.781097,591.198730 478.873932,608.305054 
	C478.899109,612.939453 480.199951,614.726318 484.751740,614.022034 
	C485.726410,613.871216 486.744385,614.000000 487.742401,614.000000 
	C497.220703,614.000061 499.045441,616.220276 496.826630,625.637573 
	C496.589996,626.641785 494.610931,627.819519 493.374542,627.899414 
	C488.901184,628.188110 484.399780,628.042725 479.124878,628.356873 
	C478.285034,634.113220 478.117218,639.575745 478.204742,645.034180 
	C478.293823,650.590698 478.634277,656.143250 478.864655,661.697510 
z"/>
<path fill="#FAF9F9" opacity="1.000000" stroke="none" 
	d="
M421.825592,661.653320 
	C422.243683,666.734070 425.307892,668.403381 429.989807,667.982910 
	C432.418945,667.764709 434.847626,667.541138 437.039917,667.341492 
	C437.989563,671.544739 439.136536,675.562012 439.632294,679.658081 
	C439.738708,680.537598 437.644714,682.285156 436.301392,682.641479 
	C426.939819,685.124390 418.104797,683.906067 409.955383,678.389771 
	C405.423492,675.322144 404.219391,670.559326 403.014008,664.875000 
	C402.970764,658.927917 403.045563,653.828125 402.917450,648.733398 
	C402.745422,641.892639 402.416626,635.055786 402.155151,628.217285 
	C391.541168,627.484924 391.537415,627.484741 392.025299,616.760132 
	C392.054626,616.115173 392.220551,615.476318 392.304230,614.951904 
	C392.704315,614.653748 392.946136,614.322083 393.224091,614.288330 
	C403.000732,613.102844 403.001221,613.106750 403.001251,603.132507 
	C403.001282,594.000427 403.001251,593.989868 412.286163,594.000000 
	C422.949554,594.011597 421.977142,593.016418 421.998840,603.565491 
	C422.004639,606.391296 422.011017,609.217041 421.951385,612.798462 
	C427.409882,613.554077 432.934174,613.554077 439.441437,613.554077 
	C438.909088,618.994263 438.471466,623.466431 438.033844,627.938538 
	C432.923279,628.000244 427.812683,628.061890 422.035522,628.546875 
	C421.521149,639.864502 421.673370,650.758911 421.825592,661.653320 
z"/>
<path fill="#00CBF8" opacity="1.000000" stroke="none" 
	d="
M648.116516,240.961411 
	C662.482788,243.759903 671.330750,252.580719 675.503540,266.928925 
	C675.182861,269.415985 675.000061,271.234619 674.999695,273.053314 
	C674.991211,314.692352 675.002625,356.331390 674.712646,398.267029 
	C674.272705,403.675690 674.130249,408.787720 673.988220,413.899750 
	C673.804688,420.504944 668.464111,424.051788 662.324280,421.701660 
	C661.267151,421.297089 660.095093,421.192932 658.962891,420.487183 
	C658.964966,410.007324 658.980286,399.990234 659.414551,389.979431 
	C663.626282,388.956116 667.547302,388.234589 671.145325,386.737061 
	C672.483765,386.180054 673.869385,383.810364 673.875916,382.261536 
	C674.028992,346.017365 673.983276,309.772400 674.014099,273.527588 
	C674.017456,269.559357 671.190186,267.502319 668.246887,267.375488 
	C665.200378,267.244171 662.070007,269.057770 658.773682,270.014893 
	C658.570984,270.009155 658.165588,270.006073 658.004028,269.676331 
	C655.951477,263.222198 651.718872,259.369843 645.641602,256.740051 
	C643.563843,256.296814 641.753845,256.047546 639.943298,256.043213 
	C616.296326,255.986404 592.649231,255.964249 569.302246,255.652618 
	C571.894653,255.247437 574.185547,255.065582 576.479553,255.010712 
	C581.122131,254.899658 582.548157,252.963608 583.132324,248.443893 
	C583.707214,243.995941 579.494080,243.701111 578.483032,241.096619 
	C602.004089,241.017044 625.060303,240.989227 648.116516,240.961411 
z"/>
<path fill="#00E2F1" opacity="1.000000" stroke="none" 
	d="
M660.912598,599.587891 
	C655.260559,602.873352 651.525757,607.564941 648.892212,613.701599 
	C644.287537,607.271606 637.814148,604.229309 630.979614,603.230103 
	C622.769836,602.029907 614.322205,602.457092 605.641479,602.407715 
	C605.190247,610.758789 605.075012,618.881714 604.959839,627.004639 
	C603.524780,626.019897 601.737000,625.311035 600.714294,624.003662 
	C595.702820,617.597046 595.774780,617.540771 587.381104,619.496033 
	C586.993958,612.953918 587.098694,606.831482 586.960876,600.714539 
	C586.858154,596.153564 586.441711,591.599670 586.164917,587.042664 
	C586.127563,586.848206 586.090210,586.653687 586.569458,586.137756 
	C601.755981,585.858826 616.425781,585.901306 631.095642,585.943726 
	C642.352600,587.355957 652.725830,590.734802 660.912598,599.587891 
z"/>
<path fill="#7898F6" opacity="1.000000" stroke="none" 
	d="
M350.025818,266.928314 
	C350.378815,257.517914 359.244324,246.087860 368.633240,242.934464 
	C370.493164,242.309784 372.349762,241.675293 375.054504,241.026993 
	C380.643982,240.977783 385.386810,240.946915 389.851471,241.217224 
	C387.851746,241.863586 386.130188,242.208786 384.284576,242.578873 
	C384.181061,243.936737 384.182190,245.080627 383.992859,246.192078 
	C383.371216,249.841095 382.680420,253.478333 381.853821,257.364441 
	C373.070221,258.112152 369.462402,264.124939 366.572693,271.495453 
	C366.234039,286.878265 366.114227,301.933044 365.647522,316.947449 
	C360.204865,309.255676 355.109070,301.604187 349.994507,293.487366 
	C349.992432,284.324097 350.009125,275.626190 350.025818,266.928314 
z"/>
<path fill="#00E2F1" opacity="1.000000" stroke="none" 
	d="
M658.976135,420.949951 
	C660.095093,421.192932 661.267151,421.297089 662.324280,421.701660 
	C668.464111,424.051788 673.804688,420.504944 673.988220,413.899750 
	C674.130249,408.787720 674.272705,403.675690 674.722046,398.739014 
	C675.030212,400.900391 674.971741,402.888611 675.043213,404.872131 
	C675.284851,411.579987 675.572632,418.286163 675.842651,424.992981 
	C674.537354,439.176483 662.268677,451.934021 647.065063,453.962830 
	C631.806458,453.909393 617.423401,453.899750 603.207153,453.661255 
	C603.910828,453.279968 604.447815,453.127533 605.452271,452.984283 
	C609.221191,452.988831 612.532043,453.122498 615.818604,452.899597 
	C616.878296,452.827759 618.483093,452.047852 618.803528,451.200439 
	C621.464417,444.163788 616.388611,437.009125 608.903137,437.002258 
	C605.271606,436.998932 601.640076,437.008850 597.654053,437.006195 
	C596.221802,436.719177 595.144043,436.438721 594.526001,436.087952 
	C610.548401,436.010925 626.111389,436.052917 641.673218,435.938538 
	C643.718628,435.923492 645.804443,435.257080 647.791687,434.636505 
	C653.989502,432.701111 656.069153,427.312408 658.354858,421.852600 
	C658.765930,421.514648 658.908875,421.253021 658.976135,420.949951 
z"/>
<path fill="#3F47C6" opacity="1.000000" stroke="none" 
	d="
M466.837891,493.008057 
	C471.108063,480.591766 475.378265,468.175446 479.813293,455.390564 
	C479.978119,455.021973 480.004547,454.991119 480.441956,454.955933 
	C487.910034,454.641846 494.940735,454.362946 502.277771,454.348816 
	C503.716522,454.739197 504.881226,455.099457 505.975616,454.948853 
	C510.243927,454.361603 511.517487,456.335388 511.062866,460.286438 
	C510.715942,463.301605 510.678436,466.352386 510.477600,469.832855 
	C512.441528,469.832855 514.206421,469.832855 516.406677,469.867249 
	C519.219177,470.321869 521.596252,470.742096 523.508606,471.103149 
	C515.246460,471.038391 507.448425,471.087372 499.652039,470.996368 
	C497.091370,470.966492 495.572296,471.373016 494.716583,474.379364 
	C493.185883,479.757385 490.862549,484.909760 488.624573,490.364685 
	C488.231171,491.428650 488.083771,492.284424 487.474304,493.089783 
	C480.287445,493.028931 473.562653,493.018494 466.837891,493.008057 
z"/>
<path fill="#0195ED" opacity="1.000000" stroke="none" 
	d="
M523.973389,471.162323 
	C521.596252,470.742096 519.219177,470.321869 516.688843,469.642090 
	C517.908142,469.045074 519.280640,468.707581 520.493042,468.409485 
	C520.097229,463.894928 519.731445,459.722931 519.350647,455.379303 
	C523.302673,454.696381 526.929932,454.069550 530.597046,453.435883 
	C527.569702,444.499664 523.650757,440.305664 515.837280,437.400757 
	C517.535522,436.971375 519.234009,436.542786 521.401978,436.064758 
	C527.248840,436.063019 532.626160,436.110748 537.760864,436.396088 
	C536.420532,437.046509 535.322876,437.459351 534.819092,437.648804 
	C538.039246,442.546936 541.050171,447.126740 544.155640,451.850403 
	C542.849426,452.742188 541.950378,453.356018 540.782227,454.139648 
	C540.334900,454.686432 540.156555,455.063446 539.978149,455.440430 
	C542.328613,462.364105 544.679138,469.287811 546.778259,476.728088 
	C541.677979,481.559418 536.829041,485.874115 531.661865,489.989624 
	C529.509460,484.892761 527.675171,479.995117 525.843506,474.794739 
	C525.529297,474.031921 525.212463,473.571808 524.635925,472.973572 
	C524.242004,472.277710 524.107666,471.720001 523.973389,471.162323 
z"/>
<path fill="#00BDFA" opacity="1.000000" stroke="none" 
	d="
M531.980042,490.188782 
	C536.829041,485.874115 541.677979,481.559418 546.854126,477.118958 
	C549.142456,482.155945 551.103516,487.318695 553.243530,492.960999 
	C553.422485,493.440552 553.361633,493.680847 553.043640,493.937622 
	C551.210510,496.766815 549.826355,499.429565 548.135620,501.880859 
	C546.944397,503.607910 544.815063,504.822968 544.022766,506.662170 
	C542.332886,510.585052 539.513062,511.116364 535.710876,511.094818 
	C529.168579,511.057831 522.623047,511.595612 515.605957,511.918640 
	C496.464233,511.945160 477.795380,511.945160 459.126495,511.945160 
	C461.583588,511.014648 464.054199,511.175507 466.497803,510.987000 
	C477.407623,510.145294 488.569031,513.137878 499.232269,508.113861 
	C506.672180,504.608490 514.582825,502.111877 522.112793,498.779633 
	C523.508606,498.161957 524.092407,495.709381 525.458130,494.070068 
	C527.720642,493.722015 529.576050,493.407562 531.455872,493.057648 
	C531.480347,493.022186 531.547668,493.075989 531.919067,493.074219 
	C532.237427,492.282928 532.184448,491.493378 532.058899,490.585297 
	C531.986328,490.466736 531.980042,490.188782 531.980042,490.188782 
z"/>
<path fill="#0195ED" opacity="1.000000" stroke="none" 
	d="
M525.050964,494.103638 
	C524.092407,495.709381 523.508606,498.161957 522.112793,498.779633 
	C514.582825,502.111877 506.672180,504.608490 499.232269,508.113861 
	C488.569031,513.137878 477.407623,510.145294 466.497803,510.987000 
	C464.054199,511.175507 461.583588,511.014648 459.126495,511.945160 
	C477.795380,511.945160 496.464233,511.945160 516.064636,511.945679 
	C527.660645,511.957855 538.325195,511.969452 549.458740,511.996674 
	C553.381836,512.022278 556.838562,511.949554 560.289246,512.060425 
	C566.466919,512.258850 572.640991,512.567749 578.816589,512.830444 
	C544.713074,512.893250 510.609528,512.967224 476.505981,513.012024 
	C466.024750,513.025818 455.543396,512.959717 444.865234,512.625000 
	C460.893219,507.109924 478.326630,505.651520 494.014832,497.268188 
	C492.860809,496.217957 492.394623,495.793671 491.908936,495.351685 
	C494.461639,494.906250 496.689514,494.517517 499.393921,494.083008 
	C508.263947,494.059357 516.657471,494.081482 525.050964,494.103638 
z"/>
<path fill="#4A85ED" opacity="1.000000" stroke="none" 
	d="
M498.917389,494.128723 
	C496.689514,494.517517 494.461639,494.906250 491.908936,495.351685 
	C492.394623,495.793671 492.860809,496.217957 494.014832,497.268188 
	C478.326630,505.651520 460.893219,507.109924 444.408875,512.570801 
	C439.181213,512.486145 435.346649,510.434113 433.658081,505.330750 
	C442.812683,506.308228 446.690033,499.868652 451.037842,494.168884 
	C453.058990,494.118225 455.080170,494.067566 457.713440,494.226196 
	C459.220367,494.015533 460.115143,493.595612 461.009918,493.175690 
	C462.675873,493.119751 464.341827,493.063843 466.422852,493.007996 
	C473.562653,493.018494 480.287445,493.028931 487.828430,493.107117 
	C488.874573,493.120331 489.104492,493.065796 489.494385,492.985168 
	C489.654297,492.959106 489.932373,493.125427 490.241577,493.389893 
	C493.339661,493.812500 496.128510,493.970612 498.917389,494.128723 
z"/>
<path fill="#00E2F1" opacity="1.000000" stroke="none" 
	d="
M579.220337,512.898193 
	C572.640991,512.567749 566.466919,512.258850 560.289246,512.060425 
	C556.838562,511.949554 553.381836,512.022278 549.757080,511.707672 
	C552.869080,511.267395 556.174316,511.313080 559.424316,510.911987 
	C560.841003,510.737183 562.961304,509.958893 563.359863,508.917847 
	C565.186462,504.146606 568.481079,499.507446 566.429871,493.906525 
	C571.981995,493.901642 577.066345,493.944336 582.150635,493.987000 
	C585.230103,495.400482 589.038574,495.364166 590.771851,499.288116 
	C593.058228,504.464142 592.097046,508.062073 586.926880,510.516418 
	C584.623901,511.609619 582.066162,512.165894 579.220337,512.898193 
z"/>
<path fill="#006B8C" opacity="1.000000" stroke="none" 
	d="
M390.129669,240.916031 
	C385.386810,240.946915 380.643982,240.977783 375.431061,241.002884 
	C375.621277,240.674393 376.281372,240.069321 376.941833,240.068924 
	C466.695953,240.016190 556.450134,240.007278 646.204285,240.004868 
	C646.697510,240.004852 647.190735,240.125092 647.900269,240.575287 
	C625.060303,240.989227 602.004089,241.017044 578.015625,241.036682 
	C525.709106,241.049210 474.334839,241.069931 422.570251,241.043579 
	C421.133362,241.026230 420.086853,241.055969 418.580811,241.034912 
	C414.729218,241.021759 411.337097,241.059402 407.557556,241.047333 
	C406.127655,240.992966 405.085266,240.988297 403.576782,240.949310 
	C398.783722,240.915329 394.456696,240.915680 390.129669,240.916031 
z"/>
<path fill="#3F47C6" opacity="1.000000" stroke="none" 
	d="
M349.630981,267.127808 
	C350.009125,275.626190 349.992432,284.324097 349.959686,293.960327 
	C349.978851,311.936737 350.014038,328.974792 350.025421,346.426941 
	C350.017395,348.223450 350.033173,349.605835 350.005249,351.423706 
	C349.984131,353.893921 350.006683,355.928650 350.029205,357.963379 
	C350.032593,380.710846 350.035980,403.458313 349.968384,426.680115 
	C349.589569,426.475555 349.012390,425.796783 349.012238,425.117889 
	C348.998657,373.014740 349.029968,320.911591 349.066071,268.808441 
	C349.066406,268.314697 349.176971,267.820984 349.630981,267.127808 
z"/>
<path fill="#0195ED" opacity="1.000000" stroke="none" 
	d="
M675.910034,424.528076 
	C675.572632,418.286163 675.284851,411.579987 675.043213,404.872131 
	C674.971741,402.888611 675.030212,400.900391 675.019653,398.442383 
	C675.002625,356.331390 674.991211,314.692352 674.999695,273.053314 
	C675.000061,271.234619 675.182861,269.415985 675.563110,267.286713 
	C675.898376,293.737152 675.974487,320.498199 675.997498,347.259277 
	C676.019531,372.860535 675.986328,398.461884 675.910034,424.528076 
z"/>
<path fill="#8C61F4" opacity="1.000000" stroke="none" 
	d="
M450.604736,494.101013 
	C446.690033,499.868652 442.812683,506.308228 433.582581,504.994202 
	C432.764648,497.395294 436.835480,493.376434 444.237305,493.955444 
	C446.205414,494.109406 448.193024,494.014038 450.604736,494.101013 
z"/>
<path fill="#006B8C" opacity="1.000000" stroke="none" 
	d="
M540.409363,455.235199 
	C540.156555,455.063446 540.334900,454.686432 541.244629,454.168579 
	C562.330811,453.981842 582.685608,453.935974 603.040405,453.890106 
	C617.423401,453.899750 631.806458,453.909393 646.666138,453.968811 
	C645.648499,454.336060 644.154846,454.927643 642.659912,454.930817 
	C608.720154,455.002747 574.780396,455.010315 540.409363,455.235199 
z"/>
<path fill="#3F47C6" opacity="1.000000" stroke="none" 
	d="
M379.616455,454.919800 
	C380.739990,454.612488 382.315155,454.142731 383.892395,454.135559 
	C401.311310,454.056335 418.730560,454.048889 437.080109,454.038177 
	C450.289612,454.044922 462.568939,453.997894 474.847595,454.069153 
	C476.568298,454.079132 478.285645,454.669434 480.004547,454.991119 
	C480.004547,454.991119 479.978119,455.021973 479.963867,455.036499 
	C446.656097,455.024750 413.362579,454.998474 379.616455,454.919800 
z"/>
<path fill="#00BDFA" opacity="1.000000" stroke="none" 
	d="
M586.097168,587.503906 
	C586.441711,591.599670 586.858154,596.153564 586.960876,600.714539 
	C587.098694,606.831482 586.993958,612.953918 586.991821,619.544312 
	C586.995056,640.272400 586.999878,660.530212 586.792969,681.279297 
	C586.581238,681.770691 586.155762,681.776428 586.155762,681.776428 
	C586.113586,650.505981 586.071472,619.235596 586.097168,587.503906 
z"/>
<path fill="#7898F6" opacity="1.000000" stroke="none" 
	d="
M362.045532,614.038086 
	C368.492218,613.542358 374.938934,613.046692 381.713135,612.525757 
	C381.713135,636.314148 381.713135,659.216248 381.713135,682.118286 
	C381.527344,682.121155 381.341553,682.124023 381.155762,682.126831 
	C381.155762,659.668945 381.155762,637.211060 381.155762,614.062988 
	C375.135376,614.062988 369.540924,614.062988 363.243591,614.109253 
	C362.375641,614.116272 362.210602,614.077148 362.045532,614.038086 
z"/>
<path fill="#006B8C" opacity="1.000000" stroke="none" 
	d="
M703.407593,654.171753 
	C704.524841,653.818176 706.103210,652.967041 707.688110,652.955017 
	C723.101868,652.837708 738.516663,652.860840 754.387512,652.811401 
	C753.316040,653.200439 751.790466,653.978882 750.260071,653.988464 
	C734.797791,654.085571 719.334656,654.056946 703.407593,654.171753 
z"/>
<path fill="#006B8C" opacity="1.000000" stroke="none" 
	d="
M571.474182,681.698181 
	C571.069214,666.599487 571.038086,651.296326 571.046631,635.527710 
	C571.393066,635.732483 571.967285,636.402649 571.967224,637.072815 
	C571.965759,651.879761 571.900818,666.686707 571.474182,681.698181 
z"/>
<path fill="#006B8C" opacity="1.000000" stroke="none" 
	d="
M586.201599,682.230469 
	C586.155762,681.776428 586.581238,681.770691 586.789673,681.728271 
	C601.417542,681.753113 615.837097,681.820312 630.740845,681.928284 
	C630.731262,682.319824 630.236206,682.978577 629.743774,682.976624 
	C615.244812,682.919556 600.746155,682.796814 586.201599,682.230469 
z"/>
<path fill="#006B8C" opacity="1.000000" stroke="none" 
	d="
M630.886780,585.554993 
	C616.425781,585.901306 601.755981,585.858826 586.629395,585.846802 
	C586.865479,585.607300 587.558167,585.102905 588.251404,585.102234 
	C602.393555,585.088989 616.535706,585.133423 630.886780,585.554993 
z"/>
<path fill="#FAF9F9" opacity="1.000000" stroke="none" 
	d="
M362.023560,614.501770 
	C362.210602,614.077148 362.375641,614.116272 362.788544,614.214111 
	C363.036377,628.152893 363.036377,642.033020 363.036377,655.913086 
	C362.691437,655.914185 362.346497,655.915283 362.001556,655.916382 
	C362.001556,642.266052 362.001556,628.615784 362.023560,614.501770 
z"/>
<path fill="#006B8C" opacity="1.000000" stroke="none" 
	d="
M313.012756,647.859497 
	C313.013824,636.462891 313.013824,625.547180 313.013824,614.631470 
	C313.251190,614.632202 313.488525,614.632935 313.725891,614.633606 
	C313.725891,627.900330 313.725891,641.166992 313.725891,654.433716 
	C313.487823,654.438293 313.249756,654.442871 313.011688,654.447510 
	C313.011688,652.411743 313.011688,650.376038 313.012756,647.859497 
z"/>
<path fill="#7898F6" opacity="1.000000" stroke="none" 
	d="
M332.144775,616.112793 
	C332.389343,616.076660 332.826538,616.412598 332.826813,616.748840 
	C332.835907,627.571838 332.802368,638.394775 332.776520,649.217773 
	C332.772949,650.706360 332.776031,652.194946 332.133698,653.684692 
	C332.133698,641.284790 332.133698,628.884888 332.144775,616.112793 
z"/>
<path fill="#3F47C6" opacity="1.000000" stroke="none" 
	d="
M402.172485,628.667114 
	C402.416626,635.055786 402.745422,641.892639 402.917450,648.733398 
	C403.045563,653.828125 402.970764,658.927917 402.949646,664.492554 
	C402.611481,663.617737 402.051208,662.276245 402.049530,660.934021 
	C402.036194,650.328430 402.129395,639.722717 402.172485,628.667114 
z"/>
<path fill="#7898F6" opacity="1.000000" stroke="none" 
	d="
M459.071411,628.609558 
	C459.326447,631.015442 459.776031,633.872009 459.816528,636.734375 
	C459.935333,645.129272 459.891418,653.526428 459.898438,662.379211 
	C459.650024,658.986633 459.277496,655.140076 459.207977,651.288025 
	C459.074310,643.881287 459.112274,636.471497 459.071411,628.609558 
z"/>
<path fill="#7898F6" opacity="1.000000" stroke="none" 
	d="
M438.463867,627.947876 
	C438.471466,623.466431 438.909088,618.994263 439.441437,613.554077 
	C432.934174,613.554077 427.409882,613.554077 421.967590,613.264648 
	C427.822723,612.975281 433.595825,612.975281 440.442047,612.975281 
	C439.895416,618.265259 439.394684,623.111206 438.463867,627.947876 
z"/>
<path fill="#7898F6" opacity="1.000000" stroke="none" 
	d="
M478.871033,661.253906 
	C478.634277,656.143250 478.293823,650.590698 478.204742,645.034180 
	C478.117218,639.575745 478.285034,634.113220 478.656677,628.398071 
	C478.940857,639.032471 478.909119,649.921387 478.871033,661.253906 
z"/>
<path fill="#3F47C6" opacity="1.000000" stroke="none" 
	d="
M421.790955,661.209412 
	C421.673370,650.758911 421.521149,639.864502 421.560760,628.636719 
	C421.753815,639.124084 421.755096,649.944824 421.790955,661.209412 
z"/>
<path fill="#006B8C" opacity="1.000000" stroke="none" 
	d="
M581.939331,493.593628 
	C577.066345,493.944336 571.981995,493.901642 565.974854,493.855713 
	C561.155212,493.795258 557.258423,493.738068 553.361633,493.680847 
	C553.361633,493.680847 553.422485,493.440552 553.432495,493.318115 
	C562.871033,493.197205 572.299561,493.198730 581.939331,493.593628 
z"/>
<path fill="#7898F6" opacity="1.000000" stroke="none" 
	d="
M551.496216,639.019470 
	C547.343750,639.305542 542.726624,639.623413 538.106201,639.883850 
	C535.984558,640.003479 533.856567,640.010193 531.246277,640.009888 
	C535.713623,639.657166 540.664795,639.338501 545.619263,639.081299 
	C547.419006,638.987793 549.226379,639.041321 551.496216,639.019470 
z"/>
<path fill="#7898F6" opacity="1.000000" stroke="none" 
	d="
M552.143677,633.809204 
	C552.368225,635.207703 552.554688,636.994141 552.376221,638.870850 
	C552.042725,637.373108 552.074219,635.785095 552.143677,633.809204 
z"/>
<path fill="#8C61F4" opacity="1.000000" stroke="none" 
	d="
M460.671967,493.107666 
	C460.115143,493.595612 459.220367,494.015533 458.143616,494.170563 
	C458.752411,493.616974 459.543213,493.328308 460.671967,493.107666 
z"/>
<path fill="#FFFFFF" opacity="1.000000" stroke="none" 
	d="
M249.655304,599.999695 
	C272.069336,599.912231 284.115692,621.270813 281.269135,639.145325 
	C278.373901,657.325928 264.942047,666.433228 248.808380,666.743286 
	C235.158356,667.005554 221.668915,659.907410 217.594376,642.869141 
	C213.906006,627.445557 219.733704,610.114624 231.183136,604.573303 
	C236.654892,601.925049 243.181259,601.455872 249.655304,599.999695 
z"/>
<path fill="#FFFFFF" opacity="1.000000" stroke="none" 
	d="
M703.036865,639.861633 
	C703.394775,638.461548 703.681580,637.038696 704.122559,635.665283 
	C706.261841,629.004211 715.157227,624.768066 724.295898,626.022339 
	C730.575684,626.884216 735.263000,632.563843 734.851929,639.901794 
	C723.720459,639.976440 713.378662,639.919067 703.036865,639.861633 
z"/>
<path fill="#0195ED" opacity="1.000000" stroke="none" 
	d="
M703.291504,640.196411 
	C713.378662,639.919067 723.720459,639.976440 734.528320,640.096558 
	C730.270813,640.437866 725.548828,640.905945 720.823059,640.946533 
	C715.065735,640.995972 709.305237,640.685852 703.291504,640.196411 
z"/>
<path fill="#FFFFFF" opacity="1.000000" stroke="none" 
	d="
M605.977539,602.179626 
	C614.322205,602.457092 622.769836,602.029907 630.979614,603.230103 
	C637.814148,604.229309 644.287537,607.271606 648.557251,613.865784 
	C657.283447,629.097961 655.607849,647.074585 644.781677,657.666443 
	C638.975830,663.346619 631.746704,665.600708 623.884644,665.948608 
	C618.231567,666.198730 612.557556,665.975098 606.424561,665.436646 
	C605.963257,644.000244 605.970398,623.089905 605.977539,602.179626 
z"/>
<path fill="#006B8C" opacity="1.000000" stroke="none" 
	d="
M605.641479,602.407715 
	C605.970398,623.089905 605.963257,644.000244 605.959290,665.359375 
	C605.678528,663.258789 605.176819,660.711670 605.149048,658.159363 
	C605.039551,648.085876 605.078796,638.010681 605.011353,627.470398 
	C605.075012,618.881714 605.190247,610.758789 605.641479,602.407715 
z"/>
<path fill="#FFFFFF" opacity="1.000000" stroke="none" 
	d="
M538.003479,436.158478 
	C532.626160,436.110748 527.248840,436.063019 520.946899,435.989716 
	C503.704895,436.030121 487.387573,436.096100 470.601562,436.094055 
	C440.781372,436.061859 411.429871,436.097717 382.078339,436.133575 
	C373.782104,435.845673 369.805511,430.377350 366.938660,422.718933 
	C366.867065,371.655945 366.829285,321.411682 366.791504,271.167389 
	C369.462402,264.124939 373.070221,258.112152 382.319214,257.319702 
	C394.293976,256.979858 405.641022,256.929108 417.455170,256.927704 
	C420.422058,256.987946 422.921844,257.007996 425.421631,257.008484 
	C498.917450,257.022827 572.413269,257.035187 645.909058,257.047882 
	C651.718872,259.369843 655.951477,263.222198 657.934875,270.140320 
	C658.017151,285.556641 657.984375,300.179230 658.001343,314.801788 
	C658.042786,350.524658 658.107239,386.247498 658.162415,421.970367 
	C656.069153,427.312408 653.989502,432.701111 647.791687,434.636505 
	C645.804443,435.257080 643.718628,435.923492 641.673218,435.938538 
	C626.111389,436.052917 610.548401,436.010925 594.054810,436.022156 
	C574.750366,436.070618 556.376892,436.114563 538.003479,436.158478 
M498.462280,360.077667 
	C498.361298,360.371216 498.260315,360.664795 498.002045,361.705658 
	C493.211182,373.984344 488.420319,386.263062 483.398438,399.133850 
	C487.531189,400.278839 490.755371,401.245056 494.017120,402.061066 
	C501.682556,403.978790 501.559601,403.902100 504.306915,396.397766 
	C508.031494,386.223938 511.979950,376.132050 515.992554,365.251007 
	C519.270569,356.510132 522.548523,347.769257 525.988831,338.283569 
	C531.707336,323.216217 537.425903,308.148895 543.328552,292.596375 
	C536.369446,290.995300 530.938782,289.745880 525.660950,288.531616 
	C523.197144,295.036224 521.014832,300.622772 518.961609,306.256348 
	C515.247986,316.445618 511.611359,326.662933 507.285553,337.227936 
	C504.495453,344.796234 501.705322,352.364532 498.979187,360.002594 
	C498.979187,360.002594 498.943695,359.914886 498.462280,360.077667 
M418.332703,336.138855 
	C409.237122,343.402435 408.937683,347.472839 417.070343,353.548706 
	C431.452759,364.293671 445.851807,375.016479 460.220886,385.779205 
	C464.643524,389.091858 470.970551,387.855194 474.606537,382.872040 
	C478.319458,377.783386 477.497955,373.670807 472.165192,369.995209 
	C461.078430,362.353577 450.008850,354.686279 439.009369,346.920258 
	C438.365448,346.465637 438.406738,345.040588 438.758148,343.784821 
	C449.942169,335.918457 461.119598,328.042664 472.314667,320.192078 
	C475.213196,318.159515 475.700623,315.316681 474.684784,312.285217 
	C471.797485,303.669281 463.301788,301.594238 456.188354,307.219421 
	C443.911102,316.928040 431.387817,326.325592 418.332703,336.138855 
M583.229553,349.993103 
	C573.570740,356.643280 563.904419,363.282623 554.256104,369.947998 
	C549.053955,373.541779 548.394470,377.298553 552.037720,382.236603 
	C556.332397,388.057495 561.559692,389.013580 567.291199,384.944580 
	C569.023560,383.714752 570.612244,382.283691 572.279297,380.960571 
	C580.192383,374.679596 588.109802,368.404083 596.732483,362.005737 
	C601.338562,358.656555 606.078674,355.474396 610.515320,351.914154 
	C615.585693,347.845428 615.077576,342.809662 609.885559,338.925903 
	C595.530884,328.188049 581.207031,317.404846 567.062744,306.393158 
	C563.727783,303.796814 560.487366,303.230835 557.111877,305.102112 
	C551.418701,308.258270 546.285767,315.624603 552.928101,320.371399 
	C561.287170,326.345032 569.756958,332.163879 578.186951,338.038147 
	C581.862732,340.599609 585.558289,343.132782 589.323914,345.733368 
	C587.195312,347.383331 585.572327,348.641418 583.229553,349.993103 
z"/>
<path fill="#8C61F4" opacity="1.000000" stroke="none" 
	d="
M382.386597,436.397339 
	C411.429871,436.097717 440.781372,436.061859 470.911011,436.354462 
	C478.415527,437.249420 485.583710,435.858490 490.818756,442.185303 
	C492.985504,444.803833 496.226379,446.504913 498.673920,448.930817 
	C500.087158,450.331665 500.892456,452.345856 501.971405,454.084045 
	C494.940735,454.362946 487.910034,454.641846 480.441956,454.955933 
	C478.285645,454.669434 476.568298,454.079132 474.847595,454.069153 
	C462.568939,453.997894 450.289612,454.044922 437.554504,454.015106 
	C434.730896,451.846741 432.497040,449.540649 429.965942,447.627899 
	C425.625183,444.347656 421.181702,441.183350 416.600159,438.253662 
	C415.202637,437.360046 413.217590,437.095337 411.489899,437.055939 
	C401.893524,436.836945 392.293549,436.776093 382.386597,436.397339 
z"/>
<path fill="#8C61F4" opacity="1.000000" stroke="none" 
	d="
M350.297821,358.174622 
	C350.006683,355.928650 349.984131,353.893921 350.260193,351.187927 
	C350.388947,349.015411 350.219086,347.514099 350.049194,346.012817 
	C350.014038,328.974792 349.978851,311.936737 349.978455,294.425720 
	C355.109070,301.604187 360.204865,309.255676 365.676880,317.416809 
	C366.029297,335.281128 366.005432,352.635803 365.981567,369.990448 
	C360.843201,366.122253 355.704803,362.254059 350.297821,358.174622 
z"/>
<path fill="#3F47C6" opacity="1.000000" stroke="none" 
	d="
M366.003510,370.459778 
	C366.005432,352.635803 366.029297,335.281128 366.023773,317.457153 
	C366.114227,301.933044 366.234039,286.878265 366.572693,271.495453 
	C366.829285,321.411682 366.867065,371.655945 366.862305,422.348999 
	C366.600769,420.209259 366.209625,417.621918 366.191223,415.031952 
	C366.086639,400.331360 366.071198,385.630096 366.003510,370.459778 
z"/>
<path fill="#00BDFA" opacity="1.000000" stroke="none" 
	d="
M407.945007,241.097046 
	C411.337097,241.059402 414.729218,241.021759 418.790527,241.280380 
	C420.626678,241.414642 421.793640,241.252655 422.960602,241.090637 
	C474.334839,241.069931 525.709106,241.049210 577.550720,241.088425 
	C579.494080,243.701111 583.707214,243.995941 583.132324,248.443893 
	C582.548157,252.963608 581.122131,254.899658 576.479553,255.010712 
	C574.185547,255.065582 571.894653,255.247437 568.833862,255.676559 
	C558.027100,255.961609 547.988708,255.941940 537.653625,255.640182 
	C529.250244,255.551331 521.143616,255.744583 512.566406,255.958649 
	C480.342743,256.021027 448.589600,256.062622 416.385803,256.095764 
	C411.979218,256.062195 408.019897,256.130280 404.068512,255.983536 
	C400.673981,255.857483 397.728760,252.041138 398.146454,247.846512 
	C398.459015,244.707489 398.763397,240.929840 404.129333,241.941147 
	C405.658203,241.676880 406.801605,241.386963 407.945007,241.097046 
z"/>
<path fill="#00BDFA" opacity="1.000000" stroke="none" 
	d="
M658.976318,270.020599 
	C662.070007,269.057770 665.200378,267.244171 668.246887,267.375488 
	C671.190186,267.502319 674.017456,269.559357 674.014099,273.527588 
	C673.983276,309.772400 674.028992,346.017365 673.875916,382.261536 
	C673.869385,383.810364 672.483765,386.180054 671.145325,386.737061 
	C667.547302,388.234589 663.626282,388.956116 659.403259,389.513977 
	C658.974121,349.368317 658.975220,309.694458 658.976318,270.020599 
z"/>
<path fill="#0195ED" opacity="1.000000" stroke="none" 
	d="
M416.836456,256.104248 
	C448.589600,256.062622 480.342743,256.021027 513.030273,255.976440 
	C521.959961,255.956375 529.955139,255.939331 537.950378,255.922272 
	C547.988708,255.941940 558.027100,255.961609 568.533813,255.957336 
	C592.649231,255.964249 616.296326,255.986404 639.943298,256.043213 
	C641.753845,256.047546 643.563843,256.296814 645.641602,256.740051 
	C572.413269,257.035187 498.917450,257.022827 425.421631,257.008484 
	C422.921844,257.007996 420.422058,256.987946 417.421387,256.733398 
	C416.920532,256.489807 416.836456,256.104248 416.836456,256.104248 
z"/>
<path fill="#0195ED" opacity="1.000000" stroke="none" 
	d="
M658.773682,270.014893 
	C658.975220,309.694458 658.974121,349.368317 658.984314,389.507660 
	C658.980286,399.990234 658.964966,410.007324 658.962891,420.487183 
	C658.908875,421.253021 658.765930,421.514648 658.354858,421.852600 
	C658.107239,386.247498 658.042786,350.524658 658.001343,314.801788 
	C657.984375,300.179230 658.017151,285.556641 658.096436,270.470062 
	C658.165588,270.006073 658.570984,270.009155 658.773682,270.014893 
z"/>
<path fill="#4A85ED" opacity="1.000000" stroke="none" 
	d="
M416.385803,256.095795 
	C416.836456,256.104248 416.920532,256.489807 416.954285,256.684082 
	C405.641022,256.929108 394.293976,256.979858 382.481567,257.075348 
	C382.680420,253.478333 383.371216,249.841095 383.992859,246.192078 
	C384.182190,245.080627 384.181061,243.936737 384.284576,242.578873 
	C386.130188,242.208786 387.851746,241.863586 389.851471,241.217224 
	C394.456696,240.915680 398.783722,240.915329 403.497467,241.180939 
	C403.884186,241.446915 403.743835,241.915497 403.743835,241.915497 
	C398.763397,240.929840 398.459015,244.707489 398.146454,247.846512 
	C397.728760,252.041138 400.673981,255.857483 404.068512,255.983536 
	C408.019897,256.130280 411.979218,256.062195 416.385803,256.095795 
z"/>
<path fill="#00BDFA" opacity="1.000000" stroke="none" 
	d="
M537.760864,436.396088 
	C556.376892,436.114563 574.750366,436.070618 593.595032,436.092468 
	C595.144043,436.438721 596.221802,436.719177 597.683716,437.354919 
	C600.373474,442.798523 602.679138,447.886780 604.984741,452.975067 
	C604.447815,453.127533 603.910828,453.279968 603.207153,453.661255 
	C582.685608,453.935974 562.330811,453.981842 541.513672,453.998779 
	C541.950378,453.356018 542.849426,452.742188 544.155640,451.850403 
	C541.050171,447.126740 538.039246,442.546936 534.819092,437.648804 
	C535.322876,437.459351 536.420532,437.046509 537.760864,436.396088 
z"/>
<path fill="#00CBF8" opacity="1.000000" stroke="none" 
	d="
M605.452271,452.984283 
	C602.679138,447.886780 600.373474,442.798523 598.038208,437.361511 
	C601.640076,437.008850 605.271606,436.998932 608.903137,437.002258 
	C616.388611,437.009125 621.464417,444.163788 618.803528,451.200439 
	C618.483093,452.047852 616.878296,452.827759 615.818604,452.899597 
	C612.532043,453.122498 609.221191,452.988831 605.452271,452.984283 
z"/>
<path fill="#FFFFFF" opacity="1.000000" stroke="none" 
	d="
M489.932373,493.125427 
	C489.932373,493.125427 489.654297,492.959106 489.383453,492.636169 
	C489.031952,491.594330 488.951294,490.875397 488.870605,490.156494 
	C490.862549,484.909760 493.185883,479.757385 494.716583,474.379364 
	C495.572296,471.373016 497.091370,470.966492 499.652039,470.996368 
	C507.448425,471.087372 515.246460,471.038391 523.508606,471.103149 
	C524.107666,471.720001 524.242004,472.277710 524.664246,473.273193 
	C525.248413,474.173157 525.544678,474.635315 525.840881,475.097473 
	C527.675171,479.995117 529.509460,484.892761 531.661865,489.989594 
	C531.980042,490.188782 531.986328,490.466736 531.986450,490.993103 
	C531.840210,492.038300 531.693909,492.557159 531.547668,493.075989 
	C531.547668,493.075989 531.480347,493.022186 530.942749,493.021362 
	C516.914185,493.055511 503.423279,493.090485 489.932373,493.125427 
z"/>
<path fill="#4A85ED" opacity="1.000000" stroke="none" 
	d="
M502.277771,454.348816 
	C500.892456,452.345856 500.087158,450.331665 498.673920,448.930817 
	C496.226379,446.504913 492.985504,444.803833 490.818756,442.185303 
	C485.583710,435.858490 478.415527,437.249420 471.379700,436.422485 
	C487.387573,436.096100 503.704895,436.030121 520.477295,436.039185 
	C519.234009,436.542786 517.535522,436.971375 515.837280,437.400757 
	C523.650757,440.305664 527.569702,444.499664 530.597046,453.435883 
	C526.929932,454.069550 523.302673,454.696381 519.350647,455.379303 
	C519.731445,459.722931 520.097229,463.894928 520.493042,468.409485 
	C519.280640,468.707581 517.908142,469.045074 516.253479,469.607727 
	C514.206421,469.832855 512.441528,469.832855 510.477600,469.832855 
	C510.678436,466.352386 510.715942,463.301605 511.062866,460.286438 
	C511.517487,456.335388 510.243927,454.361603 505.975616,454.948853 
	C504.881226,455.099457 503.716522,454.739197 502.277771,454.348816 
z"/>
<path fill="#006B8C" opacity="1.000000" stroke="none" 
	d="
M488.624634,490.364685 
	C488.951294,490.875397 489.031952,491.594330 489.223511,492.662231 
	C489.104492,493.065796 488.874573,493.120331 488.290497,493.157532 
	C488.083771,492.284424 488.231171,491.428650 488.624634,490.364685 
z"/>
<path fill="#3F47C6" opacity="1.000000" stroke="none" 
	d="
M525.843506,474.794739 
	C525.544678,474.635315 525.248413,474.173157 524.923889,473.411377 
	C525.212463,473.571808 525.529297,474.031921 525.843506,474.794739 
z"/>
<path fill="#00CBF8" opacity="1.000000" stroke="none" 
	d="
M553.043640,493.937622 
	C557.258423,493.738068 561.155212,493.795258 565.507019,493.903259 
	C568.481079,499.507446 565.186462,504.146606 563.359863,508.917847 
	C562.961304,509.958893 560.841003,510.737183 559.424316,510.911987 
	C556.174316,511.313080 552.869080,511.267395 549.287964,511.692078 
	C538.325195,511.969452 527.660645,511.957855 516.537476,511.919189 
	C522.623047,511.595612 529.168579,511.057831 535.710876,511.094818 
	C539.513062,511.116364 542.332886,510.585052 544.022766,506.662170 
	C544.815063,504.822968 546.944397,503.607910 548.135620,501.880859 
	C549.826355,499.429565 551.210510,496.766815 553.043640,493.937622 
z"/>
<path fill="#006B8C" opacity="1.000000" stroke="none" 
	d="
M490.241577,493.389893 
	C503.423279,493.090485 516.914185,493.055511 530.918213,493.056824 
	C529.576050,493.407562 527.720642,493.722015 525.458130,494.070068 
	C516.657471,494.081482 508.263947,494.059357 499.393921,494.082977 
	C496.128510,493.970612 493.339661,493.812500 490.241577,493.389893 
z"/>
<path fill="#006B8C" opacity="1.000000" stroke="none" 
	d="
M531.919067,493.074219 
	C531.693909,492.557159 531.840210,492.038300 532.058960,491.111664 
	C532.184448,491.493378 532.237427,492.282928 531.919067,493.074219 
z"/>
<path fill="#00CBF8" opacity="1.000000" stroke="none" 
	d="
M422.570251,241.043579 
	C421.793640,241.252655 420.626678,241.414642 419.250000,241.331177 
	C420.086853,241.055969 421.133362,241.026230 422.570251,241.043579 
z"/>
<path fill="#00CBF8" opacity="1.000000" stroke="none" 
	d="
M404.129333,241.941147 
	C403.743835,241.915497 403.884186,241.446915 403.963501,241.215271 
	C405.085266,240.988297 406.127655,240.992966 407.557556,241.047333 
	C406.801605,241.386963 405.658203,241.676880 404.129333,241.941147 
z"/>
<path fill="#B839F9" opacity="1.000000" stroke="none" 
	d="
M350.025452,346.426941 
	C350.219086,347.514099 350.388947,349.015411 350.303833,350.752441 
	C350.033173,349.605835 350.017395,348.223450 350.025452,346.426941 
z"/>
<path fill="#00E2F1" opacity="1.000000" stroke="none" 
	d="
M583.949341,349.899475 
	C585.572327,348.641418 587.195312,347.383331 589.323914,345.733368 
	C585.558289,343.132782 581.862732,340.599609 578.186951,338.038147 
	C569.756958,332.163879 561.287170,326.345032 552.928101,320.371399 
	C546.285767,315.624603 551.418701,308.258270 557.111877,305.102112 
	C560.487366,303.230835 563.727783,303.796814 567.062744,306.393158 
	C581.207031,317.404846 595.530884,328.188049 609.885559,338.925903 
	C615.077576,342.809662 615.585693,347.845428 610.515320,351.914154 
	C606.078674,355.474396 601.338562,358.656555 596.401062,361.694336 
	C597.251404,356.753693 594.157410,353.187988 588.211304,351.975891 
	C586.711914,351.670197 585.365845,350.611908 583.949341,349.899475 
z"/>
<path fill="#00CBF8" opacity="1.000000" stroke="none" 
	d="
M438.129150,344.067139 
	C438.406738,345.040588 438.365448,346.465637 439.009369,346.920258 
	C450.008850,354.686279 461.078430,362.353577 472.165192,369.995209 
	C477.497955,373.670807 478.319458,377.783386 474.606537,382.872040 
	C470.970551,387.855194 464.643524,389.091858 460.220886,385.779205 
	C445.851807,375.016479 431.452759,364.293671 417.070343,353.548706 
	C408.937683,347.472839 409.237122,343.402435 418.897980,336.306519 
	C420.751923,336.630676 422.312866,337.335480 423.284302,336.853088 
	C428.855804,334.086456 431.791565,338.433472 435.333618,341.070038 
	C436.411743,341.872589 437.205292,343.057404 438.129150,344.067139 
z"/>
<path fill="#00E2F1" opacity="1.000000" stroke="none" 
	d="
M438.443665,343.925964 
	C437.205292,343.057404 436.411743,341.872589 435.333618,341.070038 
	C431.791565,338.433472 428.855804,334.086456 423.284302,336.853088 
	C422.312866,337.335480 420.751923,336.630676 419.215515,336.163940 
	C431.387817,326.325592 443.911102,316.928040 456.188354,307.219421 
	C463.301788,301.594238 471.797485,303.669281 474.684784,312.285217 
	C475.700623,315.316681 475.213196,318.159515 472.314667,320.192078 
	C461.119598,328.042664 449.942169,335.918457 438.443665,343.925964 
z"/>
<path fill="#00CBF8" opacity="1.000000" stroke="none" 
	d="
M583.589478,349.946289 
	C585.365845,350.611908 586.711914,351.670197 588.211304,351.975891 
	C594.157410,353.187988 597.251404,356.753693 596.047668,361.754761 
	C588.109802,368.404083 580.192383,374.679596 572.279297,380.960571 
	C570.612244,382.283691 569.023560,383.714752 567.291199,384.944580 
	C561.559692,389.013580 556.332397,388.057495 552.037720,382.236603 
	C548.394470,377.298553 549.053955,373.541779 554.256104,369.947998 
	C563.904419,363.282623 573.570740,356.643280 583.589478,349.946289 
z"/>
<path fill="#00E2F1" opacity="1.000000" stroke="none" 
	d="
M507.942566,336.868530 
	C511.611359,326.662933 515.247986,316.445618 518.961609,306.256348 
	C521.014832,300.622772 523.197144,295.036224 525.660950,288.531616 
	C530.938782,289.745880 536.369446,290.995300 543.328552,292.596375 
	C537.425903,308.148895 531.707336,323.216217 525.560425,338.603882 
	C519.937256,333.765289 513.954712,335.193329 507.942566,336.868530 
z"/>
<path fill="#00BDFA" opacity="1.000000" stroke="none" 
	d="
M515.832397,366.005035 
	C511.979950,376.132050 508.031494,386.223938 504.306915,396.397766 
	C501.559601,403.902100 501.682556,403.978790 494.017120,402.061066 
	C490.755371,401.245056 487.531189,400.278839 483.398438,399.133850 
	C488.420319,386.263062 493.211182,373.984344 498.273193,361.211060 
	C498.774841,360.497803 498.907959,360.230621 498.943695,359.914886 
	C498.943695,359.914886 498.979187,360.002594 499.386108,359.989197 
	C500.945984,359.983337 502.183929,360.271027 503.237732,359.951508 
	C508.766602,358.274902 512.436401,360.137848 514.527161,365.453857 
	C514.648071,365.761169 515.383118,365.826874 515.832397,366.005035 
z"/>
<path fill="#00CBF8" opacity="1.000000" stroke="none" 
	d="
M515.912476,365.628021 
	C515.383118,365.826874 514.648071,365.761169 514.527161,365.453857 
	C512.436401,360.137848 508.766602,358.274902 503.237732,359.951508 
	C502.183929,360.271027 500.945984,359.983337 499.354126,359.954346 
	C501.705322,352.364532 504.495453,344.796234 507.614075,337.048218 
	C513.954712,335.193329 519.937256,333.765289 525.479248,338.976288 
	C522.548523,347.769257 519.270569,356.510132 515.912476,365.628021 
z"/>
<path fill="#00CBF8" opacity="1.000000" stroke="none" 
	d="
M498.703003,359.996277 
	C498.907959,360.230621 498.774841,360.497803 498.351837,360.837433 
	C498.260315,360.664795 498.361298,360.371216 498.703003,359.996277 
z"/>
<path fill="#00CBF8" opacity="1.000000" stroke="none" 
	d="
M537.653625,255.640167 
	C529.955139,255.939331 521.959961,255.956375 513.500854,255.955627 
	C521.143616,255.744583 529.250244,255.551331 537.653625,255.640167 
z"/>
</svg>